<?xml version="1.0" standalone="no"?>
<!DOCTYPE svg PUBLIC "-//W3C//DTD SVG 20010904//EN"
 "http://www.w3.org/TR/2001/REC-SVG-20010904/DTD/svg10.dtd">
<svg version="1.0" xmlns="http://www.w3.org/2000/svg"
 width="512.000000pt" height="512.000000pt" viewBox="0 0 512.000000 512.000000"
 preserveAspectRatio="xMidYMid meet">
<metadata>
Created by potrace 1.15, written by Peter Selinger 2001-2017
</metadata>
<g transform="translate(0.000000,512.000000) scale(0.100000,-0.100000)"
fill="#000000" stroke="none">
<path d="M2830 4904 c-106 -21 -320 -97 -320 -114 0 -4 66 -10 148 -13 205 -7
321 -43 448 -137 48 -36 134 -148 134 -174 0 -9 -27 -10 -102 -4 -126 10 -332
-4 -467 -32 -281 -57 -525 -178 -702 -347 -193 -185 -279 -375 -280 -618 0
-156 29 -276 106 -430 173 -349 532 -684 1091 -1018 62 -37 134 -87 162 -112
235 -211 210 -538 -53 -704 -194 -123 -460 -143 -783 -60 -286 73 -676 264
-934 457 -690 514 -897 1252 -553 1967 51 105 143 251 204 324 l28 34 36 -64
c29 -52 84 -174 146 -324 6 -16 15 -4 49 68 69 148 144 252 271 377 136 135
243 213 468 340 90 51 160 96 156 100 -19 17 -167 71 -256 94 -151 39 -253 49
-437 43 -180 -7 -305 -29 -484 -87 -113 -37 -336 -129 -335 -138 0 -4 26 -24
57 -44 68 -44 154 -118 181 -157 l20 -28 -64 -41 c-189 -125 -369 -353 -468
-592 -159 -386 -169 -926 -25 -1400 104 -343 296 -708 515 -980 297 -369 705
-669 1106 -814 687 -249 1471 -108 2047 370 232 192 413 452 486 699 39 130
45 336 15 456 -83 329 -345 572 -818 759 -194 77 -434 199 -569 288 -202 134
-332 272 -406 428 -30 63 -33 77 -33 164 0 81 4 103 25 145 75 154 268 244
497 232 57 -3 106 -7 109 -10 3 -3 11 -99 19 -213 8 -115 14 -210 15 -211 1
-9 1401 -395 1414 -390 6 3 56 134 110 293 55 159 101 294 103 301 3 6 -56 41
-139 81 -216 107 -399 223 -520 330 -45 41 -48 47 -48 92 0 140 -46 314 -126
472 -46 92 -137 233 -193 298 l-30 35 -1 -150 c0 -82 -3 -174 -7 -203 l-6 -53
-86 86 c-117 115 -186 166 -316 230 -160 79 -237 97 -425 100 -85 2 -166 1
-180 -1z m757 -729 c135 -66 246 -148 342 -251 102 -109 102 -108 33 -130 -87
-29 -250 -27 -317 4 -158 72 -235 194 -235 369 l0 76 33 -7 c17 -3 82 -31 144
-61z"/>
</g>
</svg>
