<?xml version="1.0" ?><!DOCTYPE svg  PUBLIC '-//W3C//DTD SVG 1.1//EN'  'http://www.w3.org/Graphics/SVG/1.1/DTD/svg11.dtd'><svg enable-background="new 0 0 512 512" height="24px" id="Bloodstained_x5F_knife" version="1.1" viewBox="0 0 512 512" width="24px" xml:space="preserve" xmlns="http://www.w3.org/2000/svg" xmlns:xlink="http://www.w3.org/1999/xlink"><g><g><path d="M481.33,105.518c0.252,2.75,2.695,4.773,5.437,4.521c2.75-0.253,4.774-2.688,4.521-5.438    c-4.413-47.927-31.929-84.985-33.099-86.54c-0.87-1.157-2.2-1.88-3.645-1.982c-1.445-0.102-2.862,0.429-3.886,1.452l-0.92,0.92    l-71,71c-1.953,1.953-1.953,5.119,0,7.071c1.951,1.952,5.119,1.952,7.07,0l62.465-62.464v165.859v66.089c0,2.762,2.238,5,5,5    s5-2.238,5-5v-64.163c16.539-18.171,27.109-38.688,31.393-61.027c0.521-2.712-1.257-5.332-3.969-5.852    c-2.718-0.522-5.331,1.257-5.852,3.969c-3.257,16.982-10.497,32.862-21.572,47.357V36.729    C466.575,51.135,478.654,76.464,481.33,105.518z"/><path d="M382.273,315.007c-2.762,0-5,2.238-5,5v45c0,7.72-6.28,14-14,14c-3.741,0-7.253-1.456-9.899-4.111    c-2.645-2.636-4.101-6.148-4.101-9.889v-55.971v-80.029c0-8.271-6.729-15-15-15c-4.005,0-7.771,1.561-10.606,4.395    c-2.833,2.834-4.394,6.601-4.394,10.605v30c0,15.99-13.01,29-29,29c-2.762,0-5,2.238-5,5s2.238,5,5,5c21.505,0,39-17.495,39-39    v-30c0-1.334,0.521-2.589,1.465-3.534c0.945-0.946,2.201-1.466,3.535-1.466c2.757,0,5,2.243,5,5v77.958l-71.23,71.229    l-44.104-44.108c-0.006-0.007-0.01-0.015-0.017-0.021l-30.023-30.023l-7.805-7.805l65.179-65.179v27.949    c0,9.125,3.107,17.764,8.821,24.709c0.816,0.992,1.687,1.95,2.607,2.869c0.244,0.244,0.507,0.457,0.784,0.641    c0.058,0.037,0.121,0.059,0.179,0.094c0.226,0.135,0.452,0.266,0.691,0.363c0.043,0.018,0.09,0.022,0.133,0.039    c0.26,0.097,0.523,0.182,0.793,0.234c0.069,0.014,0.14,0.01,0.209,0.02c0.246,0.037,0.494,0.071,0.743,0.071    c0.001,0,0.003-0.001,0.003-0.001c0.073,0,0.146-0.018,0.218-0.02c0.247-0.012,0.495-0.025,0.738-0.072    c0.022-0.004,0.045-0.016,0.067-0.02c0.921-0.193,1.799-0.641,2.512-1.355c1.951-1.954,1.949-5.119-0.006-7.07    c-5.477-5.468-8.492-12.748-8.492-20.502v-28.81c0-5.894,2.296-11.436,6.465-15.604l90.57-90.57c1.953-1.953,1.953-5.119,0-7.071    c-1.951-1.952-5.119-1.952-7.07,0l-90.57,90.57l-85.173,85.173c-0.003,0.002-0.005,0.004-0.008,0.006L30.708,437.479    c-13.354,13.354-13.354,35.084,0,48.438c6.677,6.677,15.447,10.016,24.218,10.016s17.541-3.339,24.218-10.016l77.689-77.689    c1.953-1.953,1.953-5.119,0-7.071c-1.951-1.952-5.119-1.952-7.07,0l-77.689,77.689c-9.455,9.455-24.84,9.455-34.295,0    s-9.455-24.839,0-34.294l141.244-141.244l4.559,4.559l29.733,29.737l-37.826,37.827c-1.953,1.953-1.953,5.119,0,7.071    c1.951,1.952,5.119,1.952,7.07,0l37.826-37.827l44.123,44.127c0.938,0.938,2.21,1.465,3.536,1.465s2.598-0.527,3.535-1.465    l67.695-67.694v43.899c0,6.418,2.5,12.445,7.029,16.961c4.526,4.539,10.553,7.039,16.971,7.039c13.233,0,24-10.767,24-24v-45    C387.273,317.245,385.035,315.007,382.273,315.007z"/><path d="M453.273,296.007c-2.762,0-5,2.238-5,5c0,7.72-6.28,14-14,14c-3.741,0-7.253-1.456-9.899-4.111    c-2.645-2.636-4.101-6.148-4.101-9.889v-62.97v-2.53c0-11.855-9.645-21.5-21.5-21.5c-0.717,0-1.428,0.035-2.132,0.104    c-4.93,0.483-9.509,2.638-13.079,6.196c-2.535,2.542-4.357,5.605-5.369,8.944c-0.605,2.003-0.92,4.106-0.92,6.256v35.529v16.971    c0,2.762,2.238,5,5,5s5-2.238,5-5v-14.899l23-23v50.899c0,6.418,2.5,12.445,7.029,16.961c4.526,4.539,10.553,7.039,16.971,7.039    c13.233,0,24-10.766,24-24C458.273,298.245,456.035,296.007,453.273,296.007z M387.273,258.966v-23.458    c0-0.383,0.019-0.764,0.056-1.141c0.259-2.639,1.412-5.089,3.304-6.987c2.182-2.174,5.073-3.372,8.141-3.372    c6.341,0,11.5,5.159,11.5,11.5v0.458L387.273,258.966z"/><path d="M362.273,404.007c-1.473,0-2.87,0.649-3.82,1.774c-3.37,3.991-20.18,24.497-20.18,36.226c0,13.233,10.767,24,24,24    c2.762,0,5-2.238,5-5s-2.238-5-5-5c-7.72,0-14-6.28-14-14c0-4.988,7.287-16.32,14.001-25.028    c6.713,8.702,13.999,20.03,13.999,25.028c0,1.211-0.154,2.411-0.457,3.568c-0.701,2.67,0.896,5.404,3.566,6.105    c2.675,0.699,5.405-0.896,6.105-3.568c0.521-1.984,0.785-4.039,0.785-6.105c0-11.729-16.81-32.234-20.18-36.226    C365.144,404.656,363.746,404.007,362.273,404.007z"/><path d="M425.273,332.007c-1.473,0-2.871,0.649-3.82,1.775c-3.105,3.678-13.237,16.291-13.237,24.167    c0,9.405,7.652,17.058,17.058,17.058c2.762,0,5-2.238,5-5s-2.238-5-5-5c-3.892,0-7.058-3.166-7.058-7.058    c0-2.138,3.254-7.646,7.06-12.844c3.804,5.192,7.056,10.7,7.056,12.844c0,2.761,2.238,5,5,5s5-2.239,5-5    c0-7.876-10.132-20.489-13.237-24.167C428.145,332.656,426.746,332.007,425.273,332.007z"/><circle cx="162.835" cy="353.788" r="9.538"/><circle cx="114.501" cy="403.022" r="9.538"/><circle cx="65.716" cy="451.806" r="9.538"/></g></g></svg>