<?xml version="1.0" standalone="no"?>
<!DOCTYPE svg PUBLIC "-//W3C//DTD SVG 20010904//EN"
 "http://www.w3.org/TR/2001/REC-SVG-20010904/DTD/svg10.dtd">
<svg version="1.0" xmlns="http://www.w3.org/2000/svg"
 width="512.000000pt" height="512.000000pt" viewBox="0 0 512.000000 512.000000"
 preserveAspectRatio="xMidYMid meet">
<metadata>
Created by potrace 1.15, written by Peter Selinger 2001-2017
</metadata>
<g transform="translate(0.000000,512.000000) scale(0.100000,-0.100000)"
fill="#000000" stroke="none">
<path d="M532 4123 c-169 -83 -385 -469 -486 -868 -42 -164 -32 -250 33 -287
14 -9 62 -18 105 -22 137 -11 219 -64 245 -161 15 -56 13 -227 -4 -308 -15
-71 -33 -116 -163 -418 -187 -430 -270 -770 -259 -1054 6 -158 26 -254 78
-363 48 -99 121 -177 206 -218 l58 -29 547 -3 c542 -3 547 -2 593 19 57 27
124 102 165 186 60 122 117 418 165 854 14 129 28 253 31 276 l5 43 399 0
c447 0 490 5 619 66 215 101 372 285 452 529 21 64 23 92 27 328 l4 257 711 0
c706 0 711 0 755 21 49 24 96 87 106 143 6 29 11 34 44 40 53 8 107 49 131 99
20 40 21 60 21 292 0 230 -2 252 -20 291 -24 48 -82 92 -133 101 -30 5 -37 10
-43 37 -11 52 -45 104 -88 133 l-41 28 -2115 2 c-1943 2 -2118 1 -2148 -14z
m2416 -1395 l-3 -223 -37 -77 c-39 -81 -108 -165 -169 -204 -80 -50 -116 -54
-501 -54 l-359 0 6 58 c3 31 10 109 15 172 5 64 13 127 19 142 l10 26 45 -43
c95 -88 243 -145 386 -148 58 -2 82 2 103 16 64 42 88 135 45 174 -13 11 -47
33 -77 49 -109 58 -167 131 -185 234 -6 36 -6 36 44 54 95 34 189 44 428 45
l234 1 -4 -222z"/>
</g>
</svg>
